<svg width="556" height="118" xmlns="http://www.w3.org/2000/svg" xmlns:xlink="http://www.w3.org/1999/xlink" overflow="hidden"><defs><clipPath id="clip0"><path d="M186 321 742 321 742 439 186 439Z" fill-rule="evenodd" clip-rule="evenodd"/></clipPath></defs><g clip-path="url(#clip0)" transform="translate(-186 -321)"><path d="M0-2 31.5057-2 31.5057 231.005 15.5057 231.005 15.5057 227.005 29.5057 227.005 27.5057 229.005 27.5057 0 29.5057 2 0 2ZM17.5057 235.005 5.50572 229.005 17.5057 223.005Z" fill="#EF746B" transform="matrix(-4.37114e-08 -1 -1 4.37114e-08 558.005 379.506)"/><path d="M253.5 383.988C253.5 378.748 257.748 374.5 262.988 374.5L397.012 374.5C402.252 374.5 406.5 378.748 406.5 383.988L406.5 425.012C406.5 430.252 402.252 434.5 397.012 434.5L262.988 434.5C257.748 434.5 253.5 430.252 253.5 425.012Z" stroke="#7F7F7F" stroke-width="1.33333" stroke-miterlimit="8" fill="#DEEBF7" fill-rule="evenodd"/><text font-family="Arial,Arial_MSFontService,sans-serif" font-weight="400" font-size="16" transform="translate(199.075 395)">Input<tspan fill="#404040" x="67.6153" y="6">Image processing</tspan><tspan fill="#404040" x="105.202" y="25">system</tspan></text><path d="M481.5 384.614C481.5 379.028 486.028 374.5 491.614 374.5L623.386 374.5C628.972 374.5 633.5 379.028 633.5 384.614L633.5 423.386C633.5 428.972 628.972 433.5 623.386 433.5L491.614 433.5C486.028 433.5 481.5 428.972 481.5 423.386Z" stroke="#7F7F7F" stroke-width="1.33333" stroke-miterlimit="8" fill="#FBE5D6" fill-rule="evenodd"/><text fill="#404040" font-family="Arial,Arial_MSFontService,sans-serif" font-weight="400" font-size="16" transform="translate(521.035 401)">IQA <tspan x="31.2866" y="0">model </tspan><tspan x="1.06" y="19">evaluation</tspan></text><path d="M406 404 445.487 404 445.487 406 443.487 404 470.974 404 470.974 408 441.487 408 441.487 406 443.487 408 406 408ZM468.974 400 480.974 406 468.974 412Z" fill="#7F7F7F"/><text font-family="Arial,Arial_MSFontService,sans-serif" font-weight="400" font-size="16" transform="translate(418.704 395)">Output<tspan fill="#404040" x="-9.5564" y="-54">Feedback</tspan><tspan x="239.861" y="1">Reference</tspan></text><path d="M0-2 4-2 4 2 0 2ZM8-2 12-2 12 2 8 2ZM16-2 20-2 20 2 16 2ZM24-2 28-2 28 2 24 2ZM32-2 36-2 36 2 32 2ZM40-2 44-2 44 2 40 2ZM48-2 52-2 52 2 48 2ZM55.9999-1.99989 59.9999-1.99989 59.9999 2.0001 55.9999 2.0001ZM63.9999-1.99989 67.9999-1.99989 67.9999 2.0001 63.9999 2.0001ZM71.9999-1.99989 75.9999-1.99989 75.9999 2.0001 71.9999 2.0001ZM79.9999-1.99989 83.9999-1.99989 83.9999 2.0001 79.9999 2.0001ZM87.9999-1.99989 91.9999-1.99989 91.9999 2.0001 87.9999 2.0001ZM92.9638-5.99989 104.964 0.000104987 92.9638 6.0001Z" fill="#7F7F7F" transform="matrix(-1 -8.74228e-08 -8.74228e-08 1 737.964 406)"/><path d="M0-2 34.9887-2 34.9887 0.000104987 32.9887-1.99989 55.9772-1.99989 55.9772 2.0001 30.9887 2.0001 30.9887 0 32.9887 2 0 2ZM53.9772-5.99989 65.9772 0.000104987 53.9772 6.0001Z" fill="#7F7F7F" transform="matrix(1 -0 -0 -1 187 406)"/></g></svg>